<svg id="Capa_1" data-name="Capa 1" xmlns="http://www.w3.org/2000/svg" viewBox="0 0 80 47.79"><defs><style>.cls-2{fill:#fff}</style></defs><path d="M40.15.18c-22.1 0-40 10.7-40 23.9S18.05 48 40.15 48s40-10.69 40-23.89S62.24.18 40.15.18z" transform="translate(-.14 -.18)" fill="#262a66"/><path class="cls-2" d="M45.27 5h1.33a.34.34 0 01.35.21c.78 2.21.61 5.28 0 8.05-.16.84-.45 1.5-.41.46a15.18 15.18 0 00-1.36-8.48c-.04-.07-.04-.24.09-.24z" transform="translate(-.14 -.18)"/><path class="cls-2" d="M43 5h1.46a.35.35 0 01.35.19 15.19 15.19 0 011 9.27c-.12.77-.47 1.55-.4.47a16 16 0 00-2.56-9.7C42.82 5.16 42.8 5 43 5z" transform="translate(-.14 -.18)"/><path class="cls-2" d="M40.2 5h1.85a.47.47 0 01.39.19 15.14 15.14 0 012.27 10.51c-.07.73-.32 1.34-.38.42A17.82 17.82 0 0040.1 5.21a.12.12 0 01.1-.21z" transform="translate(-.14 -.18)"/><path class="cls-2" d="M37.06 5h2.11a.61.61 0 01.47.2 16.08 16.08 0 013.94 11.72c0 .72-.32 1.37-.43.48A18.24 18.24 0 0037 5.19a.11.11 0 01.06-.19zm-6.99 30.3a19.45 19.45 0 01-4 .26c-4-.23-6.43-1.77-7.15-4.57s1.24-4.82 2.11-5.58a19.67 19.67 0 014.08-2.59l.14-.05-.14-.06c-3.46-1.31-5-2.92-4.71-4.92s2.42-2.79 4.4-2.53a9.09 9.09 0 013.8 1.68c0 .08-.4 1.23-.44 1.35l-.2-.12c-1.06-.56-2.53-1.15-3.58-.72a1.37 1.37 0 00-.81.93 1.9 1.9 0 00.46 1.52 14.34 14.34 0 003.33 2.19l.73.41c.46.28.5.5.5.7a.56.56 0 01-.29.51l-.26.16c-.58.34-1.79 1.07-2.3 1.42-1.67 1.13-3.51 2.73-3 4.93a3.86 3.86 0 001.81 2.42 8.63 8.63 0 005.51.87z" transform="translate(-.14 -.18)"/><path class="cls-2" d="M33 5.3c-.15-.1-.06-.29.16-.29h2.78a.81.81 0 01.49.17 16.54 16.54 0 016 13c0 .67-.27 1.29-.42.46A20.34 20.34 0 0033 5.3zm11.43 24.39h-.07v-.09c-.42-3.34.67-5.54 1.3-6.24.34-.37.61-.52.84-.48s.41.31.58.8a5.43 5.43 0 01-2.65 6.01zm.22 1.42h.06c3.57-1.14 5.49-3.57 5.12-6.49a3.38 3.38 0 00-3.51-2.92 4.44 4.44 0 00-3.51 1.76A8.23 8.23 0 0041.39 30a6.9 6.9 0 003 4.75 6.47 6.47 0 005.28.58h.06V33.8a3.85 3.85 0 01-5.08-2.64zM60 35.48h-2.5a42 42 0 001.2-8.39V27c0-1.12-.23-2.45-.87-2.9a.78.78 0 00-.72-.12 3.07 3.07 0 00-1.46 2c-.74 2-.75 5.11-.77 8.72v.76h-2.79V21.89H55v3l.11-.3c1.23-3.19 3.2-2.94 3.78-2.78a3.56 3.56 0 012.34 2.56 8.67 8.67 0 01.32 2.52A35.54 35.54 0 0160 35.48zm-22.56 0a8.67 8.67 0 01-.61-1.62v-.17l-.06.16a2.61 2.61 0 01-2.57 1.77 3.64 3.64 0 01-2.52-1.26 8 8 0 01-1.89-6c.12-3.2 1.77-6.64 5.12-6.65a3.17 3.17 0 011.29.27h.08v-4.36h2.84v11.14a32.66 32.66 0 00.55 6.72zM35.12 23c-.57.06-1.1.57-1.49 1.43a10.2 10.2 0 00-.78 4.16c-.06 3.3 1 5.18 2 5.28a1 1 0 00.75-.23c.46-.42.65-1.34.65-3v-7.15a1.21 1.21 0 00-1.13-.49z" transform="translate(-.14 -.18)"/></svg>